<?xml version="1.0" encoding="UTF-8"?>
<svg xmlns="http://www.w3.org/2000/svg" viewBox="0 0 515 97" width="1545" height="295">
  <title>TelemetryFlow Uptime Logo - Dark Theme</title>
  <g transform="translate(7,5)">
  <g id="icon">
    <g stroke="#14b8a6" stroke-width="5" stroke-linecap="round">
      <line x1="44" y1="44" x2="44" y2="10"/>
      <line x1="44" y1="44" x2="68" y2="20"/>
      <line x1="44" y1="44" x2="78" y2="44"/>
      <line x1="44" y1="44" x2="68" y2="68"/>
      <line x1="44" y1="44" x2="44" y2="78"/>
      <line x1="44" y1="44" x2="20" y2="68"/>
      <line x1="44" y1="44" x2="10" y2="44"/>
      <line x1="44" y1="44" x2="20" y2="20"/>
    </g>
    <g fill="none" stroke="#f97316" stroke-width="4">
      <circle cx="44" cy="10" r="8"/>
      <circle cx="68" cy="20" r="8"/>
      <circle cx="78" cy="44" r="8"/>
      <circle cx="68" cy="68" r="8"/>
      <circle cx="44" cy="78" r="8"/>
      <circle cx="20" cy="68" r="8"/>
      <circle cx="10" cy="44" r="8"/>
      <circle cx="20" cy="20" r="8"/>
    </g>
    <circle cx="44" cy="44" r="14" fill="none" stroke="#14b8a6" stroke-width="5"/>
    <line x1="37" y1="37" x2="51" y2="51" stroke="#14b8a6" stroke-width="4" stroke-linecap="round"/>
    <line x1="51" y1="37" x2="37" y2="51" stroke="#14b8a6" stroke-width="4" stroke-linecap="round"/>
  </g>
  <text x="100" y="48" font-family="system-ui,-apple-system,BlinkMacSystemFont,Roboto,sans-serif" font-size="36" font-weight="800" fill="#f8fafc">TelemetryFlow</text>
  <text x="352" y="48" font-family="system-ui,-apple-system,BlinkMacSystemFont,Roboto,sans-serif" font-size="36" font-weight="800" fill="#f97316">[Uptime]</text>
  <text x="100" y="72" font-family="system-ui,-apple-system,BlinkMacSystemFont,Roboto,sans-serif" font-size="12" font-weight="600" fill="#f97316" letter-spacing="4">OBSERVABILITY</text>
  </g>
</svg>