<?xml version="1.0" encoding="UTF-8"?>
<svg width="288" height="288" viewBox="0 0 96 96" xmlns="http://www.w3.org/2000/svg">
  <title>TelemetryFlow Icon - Light Theme</title>
  <g stroke="#0d9488" stroke-width="5" stroke-linecap="round">
    <line x1="48" y1="48" x2="48" y2="14"/>
    <line x1="48" y1="48" x2="72" y2="24"/>
    <line x1="48" y1="48" x2="82" y2="48"/>
    <line x1="48" y1="48" x2="72" y2="72"/>
    <line x1="48" y1="48" x2="48" y2="82"/>
    <line x1="48" y1="48" x2="24" y2="72"/>
    <line x1="48" y1="48" x2="14" y2="48"/>
    <line x1="48" y1="48" x2="24" y2="24"/>
  </g>
  <g fill="none" stroke="#f97316" stroke-width="4">
    <circle cx="48" cy="14" r="8"/>
    <circle cx="72" cy="24" r="8"/>
    <circle cx="82" cy="48" r="8"/>
    <circle cx="72" cy="72" r="8"/>
    <circle cx="48" cy="82" r="8"/>
    <circle cx="24" cy="72" r="8"/>
    <circle cx="14" cy="48" r="8"/>
    <circle cx="24" cy="24" r="8"/>
  </g>
  <circle cx="48" cy="48" r="14" fill="none" stroke="#0d9488" stroke-width="5"/>
  <line x1="41" y1="41" x2="55" y2="55" stroke="#0d9488" stroke-width="4" stroke-linecap="round"/>
  <line x1="55" y1="41" x2="41" y2="55" stroke="#0d9488" stroke-width="4" stroke-linecap="round"/>
</svg>
